<svg xmlns="http://www.w3.org/2000/svg" xmlns:xlink="http://www.w3.org/1999/xlink" viewBox="0,0,256,256" width="80px" height="80px"><g fill="none" fill-rule="nonzero" stroke="none" stroke-width="1" stroke-linecap="butt" stroke-linejoin="miter" stroke-miterlimit="10" stroke-dasharray="" stroke-dashoffset="0" font-family="none" font-weight="none" font-size="none" text-anchor="none" style="mix-blend-mode: normal"><g transform="scale(3.2,3.2)"><path d="M35,77.5l-2.3,-9.1l-0.3,-0.1c-5,-1.3 -9.6,-4 -13.2,-7.6l-0.2,-0.2l-9,2.6l-5,-8.7l6.7,-6.5l-0.1,-0.3c-0.7,-2.5 -1,-5.1 -1,-7.6c0,-2.5 0.3,-5 1,-7.6l0.1,-0.3l-6.7,-6.5l5,-8.7l9,2.6l0.2,-0.2c3.6,-3.6 8.2,-6.2 13.2,-7.6l0.3,-0.1l2.3,-9.1h10l2.3,9.1l0.3,0.1c5,1.3 9.6,4 13.2,7.6l0.2,0.2l9,-2.6l5,8.7l-6.7,6.5l0.1,0.3c0.7,2.5 1,5.1 1,7.6c0,2.5 -0.3,5 -1,7.6l-0.1,0.3l6.7,6.5l-5,8.7l-9,-2.6l-0.2,0.2c-3.6,3.6 -8.2,6.2 -13.2,7.6l-0.3,0.1l-2.3,9.1zM40,24.6c-8.5,0 -15.4,6.9 -15.4,15.4c0,8.5 6.9,15.4 15.4,15.4c8.5,0 15.4,-6.9 15.4,-15.4c0,-8.5 -6.9,-15.4 -15.4,-15.4z" fill="#fbca1f"></path><path d="M44.6,3l2.1,8.4l0.1,0.6l0.6,0.2c4.9,1.3 9.4,3.9 12.9,7.4l0.4,0.4l0.6,-0.2l8.3,-2.4l4.6,8.1l-6.2,6l-0.3,0.5l0.2,0.6c0.7,2.5 1,5 1,7.5c0,2.5 -0.3,5 -1,7.5l-0.2,0.4l0.4,0.4l6.2,6l-4.6,8.1l-8.3,-2.4l-0.6,-0.1l-0.4,0.4c-3.6,3.6 -8,6.1 -12.9,7.4l-0.6,0.2l-0.1,0.6l-2.2,8.4h-9.3l-2.1,-8.4l-0.1,-0.6l-0.6,-0.2c-4.9,-1.3 -9.4,-3.9 -12.9,-7.4l-0.4,-0.4l-0.6,0.2l-8.3,2.4l-4.6,-8l6.2,-6l0.4,-0.4l-0.2,-0.6c-0.7,-2.5 -1,-5 -1,-7.5c0,-2.5 0.3,-5 1,-7.5l0.2,-0.6l-0.4,-0.4l-6.2,-6l4.6,-8l8.3,2.4l0.6,0.2l0.4,-0.4c3.6,-3.6 8,-6.1 12.9,-7.4l0.6,-0.2l0.1,-0.6l2.2,-8.6h9.2M40,55.9c8.8,0 15.9,-7.1 15.9,-15.9c0,-8.8 -7.1,-15.9 -15.9,-15.9c-8.8,0 -15.9,7.1 -15.9,15.9c0,8.8 7.1,15.9 15.9,15.9M45.4,2h-10.8l-2.3,9.2c-5.1,1.4 -9.7,4.1 -13.4,7.7l-9.1,-2.6l-5.4,9.4l6.8,6.6c-0.7,2.5 -1,5 -1,7.7c0,2.7 0.4,5.3 1,7.7l-6.8,6.6l5.4,9.4l9.1,-2.6c3.6,3.7 8.3,6.3 13.4,7.7l2.3,9.2h10.9l2.3,-9.2c5.1,-1.4 9.7,-4.1 13.4,-7.7l9.1,2.6l5.4,-9.4l-6.8,-6.6c0.7,-2.5 1,-5 1,-7.7c0,-2.7 -0.4,-5.3 -1,-7.7l6.8,-6.6l-5.4,-9.4l-9.1,2.6c-3.7,-3.7 -8.3,-6.3 -13.4,-7.7l-2.4,-9.2zM40,54.9c-8.2,0 -14.9,-6.7 -14.9,-14.9c0,-8.2 6.7,-14.9 14.9,-14.9c8.2,0 14.9,6.7 14.9,14.9c0,8.2 -6.7,14.9 -14.9,14.9z" fill="#000000"></path><path d="M40,61.5c-11.9,0 -21.5,-9.6 -21.5,-21.5c0,-11.9 9.6,-21.5 21.5,-21.5c11.9,0 21.5,9.6 21.5,21.5c0,11.9 -9.6,21.5 -21.5,21.5zM40,31.5c-4.7,0 -8.5,3.8 -8.5,8.5c0,4.7 3.8,8.5 8.5,8.5c4.7,0 8.5,-3.8 8.5,-8.5c0,-4.7 -3.8,-8.5 -8.5,-8.5z" fill="#ffffff"></path><path d="M40,19c11.6,0 21,9.4 21,21c0,11.6 -9.4,21 -21,21c-11.6,0 -21,-9.4 -21,-21c0,-11.6 9.4,-21 21,-21M40,49c5,0 9,-4 9,-9c0,-5 -4,-9 -9,-9c-5,0 -9,4 -9,9c0,5 4,9 9,9M40,18c-12.1,0 -22,9.9 -22,22c0,12.1 9.9,22 22,22c12.1,0 22,-9.8 22,-22c0,-12.2 -9.8,-22 -22,-22zM40,48c-4.4,0 -8,-3.6 -8,-8c0,-4.4 3.6,-8 8,-8c4.4,0 8,3.6 8,8c0,4.4 -3.6,8 -8,8z" fill="#000000"></path></g></g></svg>